<svg width="41" height="40" viewBox="0 0 41 40" fill="none" xmlns="http://www.w3.org/2000/svg">
<circle cx="20.2104" cy="20" r="18" fill="white"/>
<circle cx="20.2104" cy="20" r="19" stroke="#FF7643" stroke-width="2"/>
<path d="M19.0951 36.5121C29.0362 36.5121 37.0951 28.4533 37.0951 18.5121C37.0951 14.7996 35.9711 11.3496 34.0449 8.48375C36.6458 11.6048 38.2104 15.6196 38.2104 19.9998C38.2104 29.941 30.1515 37.9998 20.2104 37.9998C13.9818 37.9998 8.49209 34.8362 5.2605 30.0282C8.56231 33.9905 13.5342 36.5121 19.0951 36.5121Z" fill="#FF7643"/>
<path d="M12.8598 36.2846C20.2065 35.5214 35.1521 29.5032 35.9446 10.8793" stroke="#FF7643" stroke-width="3" stroke-linecap="round" stroke-linejoin="round"/>
<path d="M6.96039 7.67334L34.5833 30.5994" stroke="#FF7643" stroke-width="2" stroke-linecap="round" stroke-linejoin="round"/>
<path d="M2 20.578C2.74405 22.8567 6.37183 26.7709 16.539 26.9745C26.7062 27.178 29.7416 31.8941 29.9884 34.2267" stroke="#FF7643" stroke-width="3" stroke-linecap="round" stroke-linejoin="round"/>
<path d="M22.8104 2C25.0132 4.69308 29.4042 11.5706 29.9029 17.5368C30.4017 23.5031 34.5996 25.4089 36.6362 25.6161" stroke="#FF7643" stroke-width="3" stroke-linecap="round" stroke-linejoin="round"/>
</svg>
